<svg preserveAspectRatio="xMidYMid meet" viewBox="0 13.48249027237354 258 58.42412451361867" xmlns="http://www.w3.org/2000/svg" version="1.0" style="max-height: 500px" width="258" height="58.42412451361867">
<metadata>
Created by potrace 1.10, written by Peter Selinger 2001-2011
</metadata>
<g stroke="none" fill="#2a2927" transform="translate(0.000000,77.000000) scale(0.100000,-0.100000)">
<path d="M243 618 c-110 -5 -138 -10 -166 -27 -19 -12 -44 -21 -56 -21 -21 0&#10;-21 -2 -21 -235 l0 -235 88 -1 c160 -1 266 -10 316 -24 43 -13 52 -13 71 -1&#10;19 12 70 14 321 8 165 -4 322 -3 349 1 28 5 154 12 280 16 127 5 232 9 235 11&#10;19 11 -161 20 -505 25 -220 4 -407 9 -415 13 -38 15 134 19 610 16 283 -2 586&#10;-6 674 -9 154 -4 159 -4 176 18 18 21 25 22 172 22 84 0 159 4 166 8 6 5 12&#10;18 12 31 0 12 5 27 11 33 8 8 7 17 -2 32 -11 16 -11 23 -1 33 18 18 15 36 -8&#10;43 -11 3 -20 15 -20 25 0 52 -91 80 -262 80 -101 0 -158 7 -158 20 0 5 54 6&#10;120 3 102 -5 120 -4 120 9 0 16 -60 38 -104 38 -40 0 -31 18 11 22 40 3 54 21&#10;26 33 -44 17 -435 25 -1143 23 -421 -2 -825 -6 -897 -10z"/>
</g>
</svg>